# xmcd
#
# Track frame offsets:
#	150
#	15120
#	37537
#	59804
#	75625
#	98828
#	114609
#	133505
#
# Disc length: 1956 seconds
#
# Revision: 1
# Processed by: cddbd v1.5.2PL0 Copyright (c) Steve Scherf et al.
# Submitted via: audiograbber 1.83.01
#
DISCID=5607a208
DTITLE=William Eliott Whitmore - Hymns for the Hopeless
DYEAR=1900
DGENRE=
TTITLE0=Cold and Dead
TTITLE1=Sometimes Our Dreams Float Like Anchors
TTITLE2=Does me no Good
TTITLE3=Lord only Knows
TTITLE4=Pine box
TTITLE5=From the cell door to the Gallows
TTITLE6=Burn My Body
TTITLE7=Our Paths will cross again
EXTD=
EXTT0=
EXTT1=
EXTT2=
EXTT3=
EXTT4=
EXTT5=
EXTT6=
EXTT7=
PLAYORDER=
